<?xml version="1.0" encoding="UTF-8"?>
<svg width="399px" height="399px" viewBox="0 0 399 399" version="1.1" xmlns="http://www.w3.org/2000/svg" xmlns:xlink="http://www.w3.org/1999/xlink">
    <title>Layer + Layer + Star + Star Copy 2 Mask</title>
    <defs>
        <rect id="path-1" x="0.854556499" y="0.00521727751" width="397" height="397"></rect>
    </defs>
    <g id="Main" stroke="none" stroke-width="1" fill="none" fill-rule="evenodd">
        <g id="Refrence" transform="translate(-33.000000, -416.000000)">
            <g id="Whos-that-pokemon-background" transform="translate(33.000000, 416.000000)">
                <g id="Layer-+-Layer-+-Star-+-Star-Copy-2-Mask" transform="translate(0.145444, 0.994783)">
                    <mask id="mask-2" fill="white">
                        <use xlink:href="#path-1"></use>
                    </mask>
                    <use id="Mask" fill="#E23201" xlink:href="#path-1"></use>
                    <g id="Layer" mask="url(#mask-2)" fill="#FE615F">
                        <g transform="translate(-133.145444, -113.994783)" id="Star">
                            <polygon points="321.775281 367.225335 301.570844 641.814413 315.99991 366.862601 261.480606 636.758513 310.31562 365.780122 222.341251 626.726448 304.812056 363.994969 184.77003 611.876428 299.576012 361.535294 149.359463 592.442648 294.690064 358.439888 116.667998 568.73159 290.231266 354.757567 87.211196 541.117192 286.269935 350.546404 61.4536103 510.034949 282.868546 345.872812 39.8014528 475.975047 280.080739 340.810495 22.596191 439.47463 277.950479 335.439289 10.1091622 401.109333 276.511363 329.843903 2.5372942 361.484198 275.786086 324.112577 0 321.224138 275.786086 318.335699 2.5372942 280.964078 276.511363 312.604373 10.1091622 241.338943 277.950479 307.008986 22.596191 202.973646 280.080739 301.637781 39.8014528 166.473229 282.868546 296.575464 61.4536103 132.413327 286.269935 291.901872 87.211196 101.331084 290.231266 287.690709 116.667998 73.7166858 294.690064 284.008388 149.359463 50.0056279 299.576012 280.912982 184.77003 30.571848 304.812056 278.453307 222.341251 15.7218284 310.31562 276.668153 261.480606 5.68976262 315.99991 275.585674 301.570844 0.63386246 321.775281 275.222941 341.979718 0.63386246 327.550652 275.585674 382.069956 5.68976262 333.234942 276.668153 421.209311 15.7218284 338.738506 278.453307 458.780532 30.571848 343.97455 280.912982 494.191098 50.0056279 348.860498 284.008388 526.882564 73.7166858 353.319296 287.690709 556.339366 101.331084 357.280626 291.901872 582.096952 132.413327 360.682016 296.575464 603.749109 166.473229 363.469823 301.637781 620.954371 202.973646 365.600083 307.008986 633.4414 241.338943 367.039199 312.604373 641.013268 280.964078 367.764476 318.335699 643.550562 321.224138 367.764476 324.112577 641.013268 361.484198 367.039199 329.843903 633.4414 401.109333 365.600083 335.439289 620.954371 439.47463 363.469823 340.810495 603.749109 475.975047 360.682016 345.872812 582.096952 510.034949 357.280626 350.546404 556.339366 541.117192 353.319296 354.757567 526.882564 568.73159 348.860498 358.439888 494.191098 592.442648 343.97455 361.535294 458.780532 611.876428 338.738506 363.994969 421.209311 626.726448 333.234942 365.780122 382.069956 636.758513 327.550652 366.862601 341.979718 641.814413"></polygon>
                            <polygon points="344.224719 464.037513 310.590043 649.240301 316.262257 461.103574 244.790689 635.278172 289.52189 452.429984 183.337079 607.964126 265.172298 438.39582 128.91503 568.491918 244.277676 419.614442 83.9030485 518.586673 227.75122 396.906688 50.2683729 460.42949 216.315215 371.264994 29.4810001 396.562116 210.469468 343.810026 22.4494382 329.775862 210.469468 315.741698 29.4810001 262.989608 216.315215 288.28673 50.2683729 199.122235 227.75122 262.645036 83.9030485 140.965051 244.277676 239.937282 128.91503 91.0598061 265.172298 221.155904 183.337079 51.5875983 289.52189 207.12174 244.790689 24.2735525 316.262257 198.44815 310.590043 10.3114236 344.224719 195.514211 377.859395 10.3114236 372.187181 198.44815 443.658749 24.2735525 398.927549 207.12174 505.11236 51.5875983 423.27714 221.155904 559.534408 91.0598061 444.171762 239.937282 604.54639 140.965051 460.698218 262.645036 638.181065 199.122235 472.134223 288.28673 658.968438 262.989608 477.97997 315.741698 666 329.775862 477.97997 343.810026 658.968438 396.562116 472.134223 371.264994 638.181065 460.42949 460.698218 396.906688 604.54639 518.586673 444.171762 419.614442 559.534408 568.491918 423.27714 438.39582 505.11236 607.964126 398.927549 452.429984 443.658749 635.278172 372.187181 461.103574 377.859395 649.240301"></polygon>
                        </g>
                    </g>
                    <g id="Layer" mask="url(#mask-2)" fill="#7ACCE6">
                        <g transform="translate(200.500000, 220.500000) rotate(-33.000000) translate(-200.500000, -220.500000) translate(-155.000000, -135.000000)">
                            <polygon id="Star" points="349.5 418.36642 330.965044 615.380309 338.854848 417.653811 294.225889 610.439373 328.399659 415.5287 258.473102 600.645673 318.321006 412.029011 224.344692 586.173977 308.798743 407.217194 192.449681 567.282533 300.002795 401.179117 163.357237 544.308459 292.090126 394.022531 137.586515 517.661729 285.201937 385.875143 115.597395 487.817853 279.461149 376.882344 97.7822714 455.309397 274.970205 367.204612 84.459057 420.716474 271.809248 357.014646 75.8655045 384.656396 270.034684 346.494285 72.1549661 347.772656 269.67818 335.831265 73.3936563 310.723446 270.746099 325.21587 79.5594708 274.169908 273.219383 314.83753 90.5423804 238.764343 277.053896 304.881447 106.146395 205.138563 282.181212 295.525289 126.09306 173.892621 288.509833 286.936015 150.026428 145.584101 295.926825 279.266901 177.519406 120.718171 304.299832 272.654804 208.081382 99.7385618 313.479436 267.217716 241.166976 83.0196564 323.301829 263.052661 276.185776 70.8598039 333.591728 260.233967 312.51287 63.475997 344.165511 258.811931 349.5 61 354.834489 258.811931 386.48713 63.475997 365.408272 260.233967 422.814224 70.8598039 375.698171 263.052661 457.833024 83.0196564 385.520564 267.217716 490.918618 99.7385618 394.700168 272.654804 521.480594 120.718171 403.073175 279.266901 548.973572 145.584101 410.490167 286.936015 572.90694 173.892621 416.818788 295.525289 592.853605 205.138563 421.946104 304.881447 608.45762 238.764343 425.780617 314.83753 619.440529 274.169908 428.253901 325.21587 625.606344 310.723446 429.32182 335.831265 626.845034 347.772656 428.965316 346.494285 623.134495 384.656396 427.190752 357.014646 614.540943 420.716474 424.029795 367.204612 601.217729 455.309397 419.538851 376.882344 583.402605 487.817853 413.798063 385.875143 561.413485 517.661729 406.909874 394.022531 535.642763 544.308459 398.997205 401.179117 506.550319 567.282533 390.201257 407.217194 474.655308 586.173977 380.678994 412.029011 440.526898 600.645673 370.600341 415.5287 404.774111 610.439373 360.145152 417.653811 368.034956 615.380309"></polygon>
                            <polygon id="Star-Copy" points="355.5 501.278809 317.117748 708.418975 324.161865 497.870581 242.147957 691.916876 294.289067 487.805263 172.478381 659.684298 267.278424 471.553499 111.366692 613.2284 244.392924 449.875201 61.6704057 554.721408 226.702667 423.784024 25.7132645 486.899045 215.03483 394.499962 5.1765845 412.932609 209.934989 363.392306 1.02063808 336.280687 211.641605 331.915613 13.4397527 260.52744 220.074881 301.541701 41.8532242 189.215004 234.840484 273.690818 84.9324704 125.677869 255.247992 249.665242 140.663154 72.8869617 280.343173 230.588382 206.439369 33.310726 308.952603 217.35225 279.185494 8.79970272 339.738538 210.575753 355.5 0.5 371.261462 210.575753 431.814506 8.79970272 402.047397 217.35225 504.560631 33.310726 430.656827 230.588382 570.336846 72.8869617 455.752008 249.665242 626.06753 125.677869 476.159516 273.690818 669.146776 189.215004 490.925119 301.541701 697.560247 260.52744 499.358395 331.915613 709.979362 336.280687 501.065011 363.392306 705.823416 412.932609 495.96517 394.499962 685.286736 486.899045 484.297333 423.784024 649.329594 554.721408 466.607076 449.875201 599.633308 613.2284 443.721576 471.553499 538.521619 659.684298 416.710933 487.805263 468.852043 691.916876 386.838135 497.870581 393.882252 708.418975"></polygon>
                        </g>
                    </g>
                    <polygon id="Star" fill="#E5FFFF" mask="url(#mask-2)" points="198.854556 323.194391 181.14763 496.448755 185.294857 322.341287 146.013026 492.010222 171.949003 319.79543 111.711764 483.203155 159.027465 315.596967 78.7847963 470.166446 146.734024 309.812113 47.7514003 453.105692 135.262556 302.532098 19.1009914 432.289952 124.79397 293.871731 -6.71459643 408.047501 115.493365 283.967592 -29.2882359 380.760658 107.507416 272.975876 -48.2639273 350.859753 100.962065 261.069927 -63.3424125 318.816341 95.9605375 248.437511 -74.2858949 285.135765 92.5817101 235.277847 -80.9217893 250.349189 90.878869 221.798472 -83.1454435 215.005217 90.878869 208.211963 -80.9217893 179.661245 92.5817101 194.732588 -74.2858949 144.874669 95.9605375 181.572924 -63.3424125 111.194093 100.962065 168.940507 -48.2639273 79.1506812 107.507416 157.034559 -29.2882359 49.2497761 115.493365 146.042842 -6.71459643 21.9629334 124.79397 136.138704 19.1009914 -2.27951719 135.262556 127.478337 47.7514003 -23.0952577 146.734024 120.198321 78.7847963 -40.1560115 159.027465 114.413467 111.711764 -53.1927203 171.949003 110.215005 146.013026 -61.9997874 185.294857 107.669147 181.14763 -66.4383201 198.854556 106.816043 216.561483 -66.4383201 212.414256 107.669147 251.696087 -61.9997874 225.76011 110.215005 285.997349 -53.1927203 238.681648 114.413467 318.924317 -40.1560115 250.975089 120.198321 349.957713 -23.0952577 262.446557 127.478337 378.608122 -2.27951719 272.915143 136.138704 404.423709 21.9629334 282.215748 146.042842 426.997349 49.2497761 290.201697 157.034559 445.97304 79.1506812 296.747048 168.940507 461.051526 111.194093 301.748576 181.572924 471.995008 144.874669 305.127403 194.732588 478.630902 179.661245 306.830244 208.211963 480.854556 215.005217 306.830244 221.798472 478.630902 250.349189 305.127403 235.277847 471.995008 285.135765 301.748576 248.437511 461.051526 318.816341 296.747048 261.069927 445.97304 350.859753 290.201697 272.975876 426.997349 380.760658 282.215748 283.967592 404.423709 408.047501 272.915143 293.871731 378.608122 432.289952 262.446557 302.532098 349.957713 453.105692 250.975089 309.812113 318.924317 470.166446 238.681648 315.596967 285.997349 483.203155 225.76011 319.79543 251.696087 492.010222 212.414256 322.341287 216.561483 496.448755"></polygon>
                    <polygon id="Star-Copy-2" fill="#E5FFFF" mask="url(#mask-2)" transform="translate(198.854556, 215.005217) rotate(11.000000) translate(-198.854556, -215.005217) " points="198.854556 284.049581 169.37753 495.460392 184.499426 282.540796 111.711764 483.203155 170.771684 278.080382 57.8545565 459.224381 158.271298 270.863281 10.1597255 424.572058 147.544595 261.204914 -29.2882359 380.760658 139.060383 249.527399 -58.7652626 329.704951 133.189464 236.341099 -76.9830669 273.636314 130.188425 222.222319 -83.1454435 215.005217 130.188425 207.788116 -76.9830669 156.37412 133.189464 193.669335 -58.7652626 100.305484 139.060383 180.483035 -29.2882359 49.2497761 147.544595 168.80552 10.1597255 5.43837649 158.271298 159.147154 57.8545565 -29.2139466 170.771684 151.930052 111.711764 -53.1927203 184.499426 147.469638 169.37753 -65.4499572 198.854556 145.960853 228.331583 -65.4499572 213.209687 147.469638 285.997349 -53.1927203 226.937429 151.930052 339.854556 -29.2139466 239.437815 159.147154 387.549387 5.43837649 250.164518 168.80552 426.997349 49.2497761 258.64873 180.483035 456.474376 100.305484 264.519649 193.669335 474.69218 156.37412 267.520688 207.788116 480.854556 215.005217 267.520688 222.222319 474.69218 273.636314 264.519649 236.341099 456.474376 329.704951 258.64873 249.527399 426.997349 380.760658 250.164518 261.204914 387.549387 424.572058 239.437815 270.863281 339.854556 459.224381 226.937429 278.080382 285.997349 483.203155 213.209687 282.540796 228.331583 495.460392"></polygon>
                </g>
            </g>
        </g>
    </g>
</svg>